Coordinates
version=1
nRows=16
nColumns=33
inDegrees=yes

Units are S.I. units (second, meters, Newtons, ...)
Angles are in degrees.

endheader
time	ground_thorax_rot_x	ground_thorax_rot_y	ground_thorax_rot_z	ground_thorax_tx	ground_thorax_ty	ground_thorax_tz	clav_prot_r	clav_elev_r	scapula_abduction_r	scapula_elevation_r	scapula_upward_rot_r	scapula_winging_r	shoulder_elv_r	plane_of_elev_r	axial_rot_r	elbow_flexion_r	pro_sup_r	wrist_flex_r	wrist_dev_r	clav_prot_l	clav_elev_l	scapula_abduction_l	scapula_elevation_l	scapula_upward_rot_l	scapula_winging_l	shoulder_elv_l	plane_of_elev_l	axial_rot_l	elbow_flexion_l	pro_sup_l	wrist_flex_l	wrist_dev_l
      2.10000000	      0.86684451	      5.23797518	     -2.30888982	     -0.15974315	      1.00657776	      0.00629726	    -21.28542720	    -10.20086365	    -27.44639002	     -6.79387578	     10.07024516	      2.51592316	     63.12788236	    -46.37375576	     54.26388602	     87.63904089	     16.29309627	     22.28384609	      1.00828142	     -0.30699638	     -2.65580433	     -2.19831117	     -4.95219476	     -3.61881375	      0.43587498	     45.29020859	    -48.09960621	    -14.75138233	     89.56058863	     15.18863298	      0.97933374	    -13.66104103
      2.11000000	      0.87063409	      5.26111922	     -2.53866582	     -0.15964108	      1.00664268	      0.00619268	    -21.41149945	    -10.50624586	    -27.63640463	     -7.05870067	      9.99952552	      2.67136335	     62.56191097	    -45.93714337	     53.23930135	     87.66740067	     15.99331777	     21.41527108	      1.64319326	     -0.32613175	     -2.85906830	     -2.19517677	     -4.77726769	     -3.64631996	      0.39106685	     45.33976506	    -47.52482695	    -14.42506526	     89.60672295	     14.72995487	      1.44423798	    -13.00570001
      2.12000000	      0.77368313	      5.27496879	     -2.41594772	     -0.15999084	      1.00632374	      0.00628428	    -21.36879260	    -10.39302492	    -27.73993042	     -6.86308599	      9.73611040	      2.67496791	     61.77103790	    -45.27676020	     52.05378768	     87.76888440	     15.50235356	     19.88421717	      3.07341736	     -0.19567839	     -2.81310964	     -2.34772387	     -4.89501780	     -3.83071382	      0.41736606	     45.59956722	    -46.97590245	    -14.32823820	     89.69740181	     13.88316652	      2.46896748	    -11.77433604
      2.13000000	      0.80944312	      5.27034782	     -2.20514637	     -0.16021601	      1.00659887	      0.00620843	    -21.31517610	    -10.57746306	    -27.60819513	     -7.03538328	      9.75223451	      2.76732234	     61.65942228	    -45.01225541	     51.87021960	     87.59378832	     15.45690558	     19.69621506	      3.22871489	     -0.15468239	     -2.98212578	     -2.45296805	     -4.74461809	     -3.83999205	      0.41331769	     45.59955637	    -46.68181305	    -14.30523044	     89.45793552	     13.80168049	      2.58172705	    -11.58980187
      2.14000000	      0.74921910	      5.28140599	     -2.30033327	     -0.16043123	      1.00620298	      0.00610751	    -21.32084726	    -10.59848735	    -27.74385271	     -6.97862575	      9.52547047	      2.82679147	     60.73877598	    -44.24736306	     50.39031142	     87.58145989	     14.82085635	     17.97305223	      4.87796105	     -0.05661144	     -3.00251794	     -2.52820364	     -4.83538794	     -4.10528479	      0.39099542	     45.83143843	    -45.87393007	    -14.00490538	     89.62103476	     12.86046036	      3.66288639	    -10.24349559
      2.15000000	      0.79710413	      5.29647863	     -2.06346899	     -0.16056637	      1.00660879	      0.00608427	    -21.30199082	    -10.82633365	    -27.67272195	     -7.18643348	      9.52186003	      2.94178159	     60.58355815	    -44.01254937	     50.12269708	     87.37461135	     14.75580018	     17.75968237	      5.02289888	     -0.03882905	     -3.23464093	     -2.60364830	     -4.62618805	     -4.11345648	      0.36303687	     45.82559934	    -45.53838859	    -13.91771753	     89.18332720	     12.79263213	      3.77001321	    -10.02006966
      2.16000000	      0.73106383	      5.31923302	     -2.13014652	     -0.16076498	      1.00619416	      0.00613375	    -21.29282576	    -10.79853673	    -27.81641218	     -7.06938472	      9.25341869	      2.98721221	     59.54453762	    -43.17325151	     48.48144993	     87.28991624	     13.91787498	     15.82822393	      6.91781296	      0.06322590	     -3.23311729	     -2.65070608	     -4.77274646	     -4.46541040	      0.32945762	     46.12101661	    -44.55698918	    -13.58908518	     89.21615884	     11.77408717	      4.97164534	     -8.51695862
      2.17000000	      0.85405068	      5.34349738	     -2.17507789	     -0.16072504	      1.00650102	      0.00606477	    -21.33192597	    -11.14716478	    -27.81283301	     -7.39613195	      9.26025313	      3.15867822	     59.25991731	    -42.78525662	     47.85611887	     87.02551999	     13.73201770	     15.39883695	      7.22253525	      0.05162296	     -3.57432618	     -2.67224916	     -4.48437903	     -4.52533416	      0.25454047	     46.09011118	    -43.93401332	    -13.31077133	     88.79698004	     11.57148086	      5.17543311	     -8.10991599
      2.18000000	      0.74169983	      5.36089076	     -2.11027232	     -0.16109437	      1.00609172	      0.00610645	    -21.22540824	    -11.11344463	    -27.80260575	     -7.26409601	      8.98172782	      3.20843495	     58.33584222	    -41.96107117	     46.55098977	     86.74493529	     12.96902160	     13.72632302	      8.82546216	      0.18793283	     -3.55031077	     -2.78429708	     -4.64474905	     -4.85963870	      0.24589466	     46.48699948	    -43.02083613	    -13.17533060	     88.68212624	     10.71449270	      6.26084465	     -6.78744687
      2.19000000	      0.77891455	      5.39061742	     -2.03698528	     -0.16122528	      1.00610480	      0.00600631	    -21.17242804	    -11.23703686	    -27.77046290	     -7.32866518	      8.84460498	      3.30458191	     57.76016016	    -41.31712524	     45.60485490	     86.29476361	     12.43847845	     12.62677310	      9.86207809	      0.22954709	     -3.77042682	     -2.75753609	     -4.59891659	     -5.23749980	      0.13772280	     46.74112335	    -42.13014854	    -12.89937102	     88.40815595	     10.04429307	      6.99236827	     -5.73324170
      2.20000000	      0.77578184	      5.42060900	     -2.00608335	     -0.16138976	      1.00607167	      0.00599752	    -21.12200468	    -11.41103038	    -27.74783091	     -7.43247024	      8.68474794	      3.43138372	     57.12806027	    -40.65367176	     44.64248529	     85.83079203	     11.98623253	     11.55289454	     10.74654207	      0.27875884	     -3.96302895	     -2.77393503	     -4.54144083	     -5.52541836	      0.06114486	     47.05117235	    -41.23967367	    -12.74291801	     88.04286395	      9.49133597	      7.66865692	     -4.78626503
      2.21000000	      0.78631667	      5.45728298	     -1.97699460	     -0.16152839	      1.00602558	      0.00595104	    -21.06267709	    -11.58136616	    -27.71158358	     -7.53175416	      8.52295702	      3.55717689	     56.51048656	    -39.95537783	     43.68833192	     85.28962005	     11.57663056	     10.46946115	     11.63475069	      0.32257138	     -4.15824518	     -2.78101739	     -4.48216869	     -5.81501429	     -0.01955370	     47.32192346	    -40.28390037	    -12.54836102	     87.62134393	      8.96914776	      8.36266528	     -3.82387813
      2.22000000	      0.79663855	      5.50140508	     -1.93670269	     -0.16167312	      1.00597509	      0.00589355	    -20.99236354	    -11.75399316	    -27.66139637	     -7.62998387	      8.35340446	      3.68703141	     55.90222724	    -39.23837468	     42.74816657	     84.67883429	     11.21814955	      9.41783804	     12.49955318	      0.37184544	     -4.35628490	     -2.79597010	     -4.42363406	     -6.11244711	     -0.09958690	     47.60005108	    -39.29464444	    -12.36508868	     87.13159462	      8.47727688	      9.06806453	     -2.85722089
      2.23000000	      0.79535073	      5.54207936	     -1.91246090	     -0.16181061	      1.00591341	      0.00586058	    -20.91316332	    -11.94309668	    -27.60033443	     -7.73943192	      8.17300879	      3.82879995	     55.28015893	    -38.48206021	     41.81011222	     83.99437839	     10.91630310	      8.39445614	     13.34427496	      0.42388342	     -4.55261351	     -2.81917038	     -4.36344566	     -6.40191675	     -0.17558989	     47.88680044	    -38.26887273	    -12.17826652	     86.57257621	      8.01461234	      9.77361706	     -1.90180706
      2.24000000	      0.85274358	      5.56716439	     -1.64755057	     -0.16202971	      1.00613477	      0.00570379	    -20.76914037	    -12.27131382	    -27.32409060	     -8.02666985	      8.14450996	      4.01596829	     55.18632484	    -38.13722878	     41.66635188	     83.23640629	     10.95222689	      8.14481200	     13.42973527	      0.52165710	     -4.86406751	     -3.05134724	     -4.07286330	     -6.39026406	     -0.17272089	     47.89729163	    -37.83038031	    -12.24382631	     85.86853722	      8.03109324	      9.86090158	     -1.70153122
      2.25000000	      0.80494230	      5.65443456	     -1.83987120	     -0.16208736	      1.00576136	      0.00571721	    -20.73469594	    -12.32237577	    -27.45413233	     -7.95333188	      7.79375015	      4.11773916	     54.08558719	    -36.91062220	     39.98019055	     82.37551418	     10.47185919	      6.45062409	     14.99592574	      0.55381386	     -4.89449878	     -2.96855497	     -4.21267294	     -6.79674467	     -0.26128852	     48.24202992	    -36.19073450	    -11.81758293	     85.19858780	      7.28079935	     11.15177941	     -0.17012536
